<?xml version="1.0" encoding="UTF-8"?>
<svg version="1.1" xmlns="http://www.w3.org/2000/svg" width="298" height="88">
<path d="M0 0 C0.33 0 0.66 0 1 0 C1.54556653 11.36596948 1.08456527 20.15808007 -6.1875 29.375 C-11.17450244 34.61665789 -16.7212915 37.12138381 -23.9375 37.5625 C-30.69359727 37.2267933 -36.2700345 34.69917641 -41.078125 29.9453125 C-48.7773614 20.59623973 -49.45313206 12.94926016 -49 1 C-45.1796875 2.7890625 -45.1796875 2.7890625 -43.5625 4.6875 C-42.01129973 6.30025005 -42.01129973 6.30025005 -39.4375 5.8125 C-36.85558728 5.15372967 -36.85558728 5.15372967 -35 3 C-31.82137714 2.49811218 -30.44550976 2.70299349 -27.75 4.5 C-25.02470366 8.39328048 -25 12.27448235 -25 17 C-24.34 16.67 -23.68 16.34 -23 16 C-23.061875 15.113125 -23.12375 14.22625 -23.1875 13.3125 C-22.92664699 8.70409691 -21.21072635 6.21072635 -18 3 C-15.5625 2.6875 -15.5625 2.6875 -13 3 C-12.505 3.515625 -12.01 4.03125 -11.5 4.5625 C-10.06047905 6.27387921 -10.06047905 6.27387921 -7.625 6 C-4.22943297 4.70645065 -2.43995787 2.64328769 0 0 Z M-27 20 C-26 23 -26 23 -26 23 Z M-22 22 C-21 24 -21 24 -21 24 Z " fill="#59312F" transform="translate(49,50)"/>
<path d="M0 0 C7.45038168 -0.36641221 7.45038168 -0.36641221 9.59375 1.0625 C11.62151135 3.85630452 12.61063653 6.94389613 13.6875 10.1875 C13.91244141 10.84169922 14.13738281 11.49589844 14.36914062 12.16992188 C14.92057309 13.77728884 15.46134891 15.38830483 16 17 C16.48919922 15.78763672 16.48919922 15.78763672 16.98828125 14.55078125 C17.42527344 13.48214844 17.86226562 12.41351563 18.3125 11.3125 C18.74175781 10.25675781 19.17101562 9.20101562 19.61328125 8.11328125 C20.907359 5.20798557 22.13330142 2.57670232 24 0 C27.5 -0.5625 27.5 -0.5625 31 0 C33.66523046 2.84291249 34.89485359 5.92228886 36.1875 9.5625 C36.53167969 10.51253906 36.87585938 11.46257813 37.23046875 12.44140625 C38 15 38 15 38 18 C38.66 18 39.32 18 40 18 C40.18175781 17.27554688 40.36351562 16.55109375 40.55078125 15.8046875 C43.83783784 3.16216216 43.83783784 3.16216216 47 0 C49.67058851 -0.14115161 52.32432238 -0.04247107 55 0 C54.33604384 3.794718 53.28055057 7.26683167 51.96875 10.88671875 C51.57042969 11.98951172 51.17210937 13.09230469 50.76171875 14.22851562 C50.13716797 15.94071289 50.13716797 15.94071289 49.5 17.6875 C49.08363281 18.84056641 48.66726562 19.99363281 48.23828125 21.18164062 C45.152502 29.694996 45.152502 29.694996 44 32 C42.741875 32.04125 41.48375 32.0825 40.1875 32.125 C39.47980469 32.14820313 38.77210938 32.17140625 38.04296875 32.1953125 C36 32 36 32 33 30 C31.98603527 27.61789694 31.11542608 25.32501613 30.3125 22.875 C30.08755859 22.21628906 29.86261719 21.55757812 29.63085938 20.87890625 C29.078032 19.25571099 28.53778691 17.62824021 28 16 C27.61908203 16.87011719 27.61908203 16.87011719 27.23046875 17.7578125 C21.50793651 30.74603175 21.50793651 30.74603175 19 32 C16.3276379 32.13415472 13.67749512 32.04318541 11 32 C4.27585161 14.83075593 4.27585161 14.83075593 1.5625 7.5625 C1.25441406 6.73878906 0.94632813 5.91507813 0.62890625 5.06640625 C0 3 0 3 0 0 Z " fill="#4D7933" transform="translate(138,23)"/>
<path d="M0 0 C3.95092059 -0.07409401 7.90157294 -0.12857406 11.85302734 -0.16479492 C13.85919374 -0.18732251 15.86516526 -0.2254357 17.87109375 -0.26367188 C19.12792969 -0.27333984 20.38476562 -0.28300781 21.6796875 -0.29296875 C22.84226074 -0.3086792 24.00483398 -0.32438965 25.20263672 -0.34057617 C26.1257666 -0.22818604 27.04889648 -0.1157959 28 0 C30 3 30 3 30 5.75 C28.65663534 10.11593513 26.13457886 12.75997659 23 16 C23.763125 16.5775 24.52625 17.155 25.3125 17.75 C28.68224764 20.57118407 30.53599862 22.54170995 31.875 26.75 C32.04157982 31.08107541 31.28166733 34.29722499 29 38 C23.07338371 42.71710276 16.70839383 43.43908981 9.27734375 42.74609375 C4.3896027 41.94706686 1.06993733 41.18627818 -2 37 C-1.4375 35.0625 -1.4375 35.0625 0 33 C4.83253512 31.71789885 9.04423331 32.10708815 13.88671875 32.94140625 C16.44064092 33.0122174 17.82877468 32.28901187 20 31 C19.505 28.525 19.505 28.525 19 26 C18.36191406 25.86722656 17.72382813 25.73445313 17.06640625 25.59765625 C15.82697266 25.33275391 15.82697266 25.33275391 14.5625 25.0625 C13.32693359 24.80146484 13.32693359 24.80146484 12.06640625 24.53515625 C10 24 10 24 9 23 C8.4648491 19.78909458 8.46875139 17.77441489 10.33984375 15.046875 C11.84323528 13.30647822 13.37883817 11.63081161 15 10 C14.33613281 9.97421875 13.67226562 9.9484375 12.98828125 9.921875 C8.7109637 9.6471276 5.6601095 9.36966132 1.875 7.25 C-0.38538331 4.53754003 -0.16961129 3.41484072 0 0 Z " fill="#4E7933" transform="translate(229,13)"/>
<path d="M0 0 C1.20205078 0.01611328 2.40410156 0.03222656 3.64257812 0.04882812 C5.51139648 0.11166992 5.51139648 0.11166992 7.41796875 0.17578125 C8.68318359 0.19833984 9.94839844 0.22089844 11.25195312 0.24414062 C14.37099494 0.30299047 17.48762777 0.38516755 20.60546875 0.48828125 C20.78710938 6.25537109 20.78710938 6.25537109 19.15234375 8.3515625 C15.38645482 10.03235035 11.92624006 9.80742311 7.85546875 9.67578125 C7.06269531 9.66224609 6.26992187 9.64871094 5.453125 9.63476562 C3.50361311 9.59953348 1.55445249 9.54572946 -0.39453125 9.48828125 C-0.39453125 12.78828125 -0.39453125 16.08828125 -0.39453125 19.48828125 C5.54546875 19.48828125 11.48546875 19.48828125 17.60546875 19.48828125 C17.60546875 21.46828125 17.60546875 23.44828125 17.60546875 25.48828125 C15.60546875 27.48828125 15.60546875 27.48828125 11.91015625 27.68359375 C10.43346767 27.67029025 8.95684517 27.6464296 7.48046875 27.61328125 C6.72636719 27.60425781 5.97226563 27.59523438 5.1953125 27.5859375 C3.33189621 27.56234995 1.46864282 27.52647844 -0.39453125 27.48828125 C-0.37132813 28.16375 -0.348125 28.83921875 -0.32421875 29.53515625 C-0.29714844 30.87320313 -0.29714844 30.87320313 -0.26953125 32.23828125 C-0.24632813 33.12 -0.223125 34.00171875 -0.19921875 34.91015625 C-0.405824 37.63734551 -0.92147284 39.20143533 -2.39453125 41.48828125 C-5.35117644 42.96660385 -8.13682862 42.54860908 -11.39453125 42.48828125 C-11.51838209 37.31055379 -11.60898696 32.13369337 -11.66918945 26.95483398 C-11.69429186 25.19426449 -11.72838153 23.43379878 -11.77172852 21.67358398 C-11.8325724 19.13889946 -11.86078238 16.6055955 -11.8828125 14.0703125 C-11.90861893 13.28678909 -11.93442535 12.50326569 -11.96101379 11.69599915 C-11.96309452 7.61674425 -11.69340091 5.90987649 -9.26367188 2.48242188 C-5.8442258 0.1058021 -4.12793023 -0.09781825 0 0 Z " fill="#4D7A33" transform="translate(77.39453125,12.51171875)"/>
<path d="M0 0 C3.35829896 3.20904123 4.81452266 6.25809063 5.9375 10.75 C6 14 6 14 4 17 C1.84521484 17.43237305 1.84521484 17.43237305 -0.7890625 17.51171875 C-1.73007812 17.54716797 -2.67109375 17.58261719 -3.640625 17.61914062 C-5.11789062 17.65297852 -5.11789062 17.65297852 -6.625 17.6875 C-8.11386719 17.73874023 -8.11386719 17.73874023 -9.6328125 17.79101562 C-12.08842906 17.87365657 -14.54368141 17.94275127 -17 18 C-17 18.66 -17 19.32 -17 20 C-12.39015333 21.4724326 -7.77176798 20.92649275 -2.99609375 20.7421875 C0 21 0 21 1.90234375 22.5078125 C2.26457031 23.00023438 2.62679688 23.49265625 3 24 C2.08090661 26.29773347 1.42859855 27.71224116 -0.65234375 29.109375 C-6.23384265 31.22681551 -13.64286319 30.98970868 -19.33203125 29.3125 C-23.53610426 27.11429189 -26.09256303 24.27265882 -28 20 C-28.77348855 13.52203341 -28.9096314 8.43106814 -25 3 C-18.1150201 -4.27053877 -8.61970715 -5.11399817 0 0 Z M-16.4375 6.8125 C-18.19374606 8.82320672 -18.19374606 8.82320672 -18 11 C-13.38 11 -8.76 11 -4 11 C-6.38003801 5.77278197 -6.38003801 5.77278197 -10.4375 4.9375 C-14.02964106 4.6545335 -14.02964106 4.6545335 -16.4375 6.8125 Z " fill="#4E7933" transform="translate(292,25)"/>
<path d="M0 0 C3.6085872 2.12269835 5.67931888 3.99840565 7.1875 7.875 C7.66759331 12.01317553 7.56485536 16.09135776 7.4375 20.25 C7.41945312 21.36761719 7.40140625 22.48523438 7.3828125 23.63671875 C7.33585555 26.3837003 7.27019468 29.12890047 7.1875 31.875 C0.5625 32.125 0.5625 32.125 -2.8125 29.875 C-3.8025 30.535 -4.7925 31.195 -5.8125 31.875 C-10.67594143 32.45469813 -15.28946513 32.46556454 -19.875 30.6875 C-22.24067031 28.47445358 -23.07764852 27.03486139 -23.8125 23.875 C-23.66101594 20.1636406 -23.27446061 18.42637235 -20.875 15.5625 C-17.10458574 12.4776156 -14.51345613 12.76862767 -9.6875 12.8125 C-8.40617188 12.82152344 -7.12484375 12.83054687 -5.8046875 12.83984375 C-4.81726563 12.85144531 -3.82984375 12.86304688 -2.8125 12.875 C-3.63252364 10.8699009 -3.63252364 10.8699009 -4.8125 8.875 C-9.12077379 7.61404182 -13.41650135 7.84625856 -17.859375 8.03515625 C-19.8125 7.875 -19.8125 7.875 -21.8125 5.875 C-21.8125 4.555 -21.8125 3.235 -21.8125 1.875 C-14.20708516 -1.14559029 -7.95494861 -2.34736188 0 0 Z M-11.8125 18.875 C-12.4725 20.195 -13.1325 21.515 -13.8125 22.875 C-11.93311828 25.17327312 -11.93311828 25.17327312 -8.875 25.1875 C-5.85333662 25.13050177 -5.85333662 25.13050177 -3.9375 23.5625 C-2.5351499 21.79699528 -2.5351499 21.79699528 -2.8125 18.875 C-5.7825 18.875 -8.7525 18.875 -11.8125 18.875 Z " fill="#4E7934" transform="translate(216.8125,23.125)"/>
<path d="M0 0 C6.50511676 -0.36821416 6.50511676 -0.36821416 8.70068359 1.26538086 C10.94511075 4.26174594 10.54103518 7.94901412 10.625 11.5625 C10.56034175 16.94589484 10.56034175 16.94589484 12 22 C14.87342972 23.00958342 16.3366913 23.30857218 19.1328125 22.0078125 C21.89812975 19.03422868 21.55904466 15.92212014 21.5625 12.0625 C21.60761886 4.90149215 21.60761886 4.90149215 23.08984375 1.49609375 C25 0 25 0 32 0 C32 10.56 32 21.12 32 32 C25 32 25 32 22 30 C21.01 30.66 20.02 31.32 19 32 C13.62333145 32.65868019 8.6615579 32.93047242 3.875 30.25 C0.56864793 26.28237752 -0.25031747 23.5298418 -0.1953125 18.359375 C-0.18886719 17.28945313 -0.18242188 16.21953125 -0.17578125 15.1171875 C-0.15902344 14.00601563 -0.14226562 12.89484375 -0.125 11.75 C-0.11597656 10.62335937 -0.10695313 9.49671875 -0.09765625 8.3359375 C-0.07410658 5.55707635 -0.0412168 2.7786461 0 0 Z " fill="#4D7933" transform="translate(102,23)"/>
<path d="M0 0 C0.66 0 1.32 0 2 0 C2.99 4.29 3.98 8.58 5 13 C5.94875 11.845 6.8975 10.69 7.875 9.5 C9.4921875 7.53125 9.4921875 7.53125 11 6 C11.66 6 12.32 6 13 6 C12.01 8.97 11.02 11.94 10 15 C10.94875 14.34 11.8975 13.68 12.875 13 C16 11 16 11 18 11 C16.87548273 13.9719385 15.77706209 16.33440687 14 19 C15.32 19.33 16.64 19.66 18 20 C16.02 20.99 16.02 20.99 14 22 C14.474375 22.763125 14.94875 23.52625 15.4375 24.3125 C17 27 17 27 18 30 C16.35 29.67 14.7 29.34 13 29 C13.66 30.32 14.32 31.64 15 33 C12.3125 34.25 12.3125 34.25 9 35 C6.125 33.25 6.125 33.25 4 31 C4 30.34 4 29.68 4 29 C3.67 29 3.34 29 3 29 C0.66585471 28.67240066 -1.66752239 28.33926947 -4 28 C-3.34 28.33 -2.68 28.66 -2 29 C-3.03443859 31.82119614 -3.73220706 32.84496198 -6.375 34.375 C-9 35 -9 35 -11.3125 34.125 C-11.869375 33.75375 -12.42625 33.3825 -13 33 C-12.34 31.68 -11.68 30.36 -11 29 C-11.99 29.33 -12.98 29.66 -14 30 C-14.66 30 -15.32 30 -16 30 C-14 26 -14 26 -12 22 C-13.32 21.34 -14.64 20.68 -16 20 C-14.68 19.67 -13.36 19.34 -12 19 C-12.66 18.05125 -13.32 17.1025 -14 16.125 C-16 13 -16 13 -16 11 C-13.0280615 12.12451727 -10.66559313 13.22293791 -8 15 C-8.99 12.03 -9.98 9.06 -11 6 C-7 8 -7 8 -3 13 C-2.01 8.71 -1.02 4.42 0 0 Z " fill="#537A31" transform="translate(24,0)"/>
<path d="M0 0 C1.32 0 2.64 0 4 0 C5.32 2.31 6.64 4.62 8 7 C8.32613281 6.4946875 8.65226563 5.989375 8.98828125 5.46875 C9.64376953 4.49421875 9.64376953 4.49421875 10.3125 3.5 C10.74175781 2.8503125 11.17101562 2.200625 11.61328125 1.53125 C12.07089844 1.0259375 12.52851563 0.520625 13 0 C13.99 0 14.98 0 16 0 C16 5.61 16 11.22 16 17 C15.01 17 14.02 17 13 17 C12.67 14.69 12.34 12.38 12 10 C11.34 11.32 10.68 12.64 10 14 C8.0625 13.625 8.0625 13.625 6 13 C5.67 12.34 5.34 11.68 5 11 C4.67 12.98 4.34 14.96 4 17 C2.68 17 1.36 17 0 17 C0 11.39 0 5.78 0 0 Z " fill="#4E7833" transform="translate(134,70)"/>
<path d="M0 0 C1.32 0 2.64 0 4 0 C5.484375 1.53125 5.484375 1.53125 6.75 3.5 C7.39195312 4.47453125 7.39195312 4.47453125 8.046875 5.46875 C8.36140625 5.9740625 8.6759375 6.479375 9 7 C9.66 4.69 10.32 2.38 11 0 C11.99 0 12.98 0 14 0 C14 5.61 14 11.22 14 17 C12.68 17 11.36 17 10 17 C8.515625 15.46875 8.515625 15.46875 7.25 13.5 C6.82203125 12.8503125 6.3940625 12.200625 5.953125 11.53125 C5.48132813 10.77328125 5.48132813 10.77328125 5 10 C4.67 12.31 4.34 14.62 4 17 C2.68 17 1.36 17 0 17 C0 11.39 0 5.78 0 0 Z " fill="#4E7933" transform="translate(249,70)"/>
<path d="M0 0 C8.3984375 -0.1953125 8.3984375 -0.1953125 11 0 C13 2 13 2 13.1875 5.5 C13 9 13 9 12 11 C12.60578253 13.01927511 13.26919734 15.02253397 14 17 C12.68 17 11.36 17 10 17 C8.95107762 15.36368108 7.95093297 13.69514137 7 12 C6.01 11.67 5.02 11.34 4 11 C4 12.98 4 14.96 4 17 C2.68 17 1.36 17 0 17 C0 11.39 0 5.78 0 0 Z M4 3 C4 4.32 4 5.64 4 7 C5.65 7 7.3 7 9 7 C9.33 6.01 9.66 5.02 10 4 C7.03 3.505 7.03 3.505 4 3 Z " fill="#4E7933" transform="translate(284,70)"/>
<path d="M0 0 C2.57990385 0.29317089 3.71766051 0.69016956 5.484375 2.62890625 C5.90203125 3.26699219 6.3196875 3.90507813 6.75 4.5625 C7.17796875 5.20316406 7.6059375 5.84382813 8.046875 6.50390625 C8.36140625 6.99761719 8.6759375 7.49132812 9 8 C9.33 5.36 9.66 2.72 10 0 C10.99 0 11.98 0 13 0 C13 5.61 13 11.22 13 17 C11.68 17 10.36 17 9 17 C7.515625 15.25 7.515625 15.25 6.25 13 C5.82203125 12.2575 5.3940625 11.515 4.953125 10.75 C4.48132813 9.88375 4.48132813 9.88375 4 9 C3.67 11.64 3.34 14.28 3 17 C1.68 16.67 0.36 16.34 -1 16 C-1.02685095 13.52076199 -1.04676547 11.0418116 -1.0625 8.5625 C-1.07506836 7.50192383 -1.07506836 7.50192383 -1.08789062 6.41992188 C-1.09653588 4.61306441 -1.05220011 2.80612397 -1 1 C-0.67 0.67 -0.34 0.34 0 0 Z " fill="#4E7833" transform="translate(83,70)"/>
<path d="M0 0 C3.96 0 7.92 0 12 0 C12 0.99 12 1.98 12 3 C9.36 3 6.72 3 4 3 C4 4.32 4 5.64 4 7 C6.31 7 8.62 7 11 7 C11 7.99 11 8.98 11 10 C8.69 10 6.38 10 4 10 C4 11.32 4 12.64 4 14 C6.64 14 9.28 14 12 14 C12 14.99 12 15.98 12 17 C8.04 17 4.08 17 0 17 C0 11.39 0 5.78 0 0 Z " fill="#4D7934" transform="translate(268,70)"/>
<path d="M0 0 C2 2 2 2 2 6 C1.443125 5.855625 0.88625 5.71125 0.3125 5.5625 C-2.11384195 4.97230872 -4.54906345 4.476571 -7 4 C-7 6.97 -7 9.94 -7 13 C-5.35 13.33 -3.7 13.66 -2 14 C-1.67 13.01 -1.34 12.02 -1 11 C-0.01 11 0.98 11 2 11 C1.51812367 15.57782516 1.51812367 15.57782516 -0.6875 17.375 C-3.84216383 18.22761185 -5.87707809 17.93023206 -9 17 C-11.30505997 15.15595202 -11.89651033 13.78192193 -12.28125 10.875 C-12.41669501 7.44372647 -12.24662196 4.67410003 -11.0625 1.4375 C-7.72873642 -0.88603219 -3.93438445 -0.64204376 0 0 Z " fill="#4E7833" transform="translate(194,70)"/>
<path d="M0 0 C3.96 0 7.92 0 12 0 C12 0.99 12 1.98 12 3 C9.36 3 6.72 3 4 3 C4 4.32 4 5.64 4 7 C6.31 7 8.62 7 11 7 C11 7.99 11 8.98 11 10 C8.69 10 6.38 10 4 10 C4 11.32 4 12.64 4 14 C6.64 14 9.28 14 12 14 C12 14.99 12 15.98 12 17 C8.04 17 4.08 17 0 17 C0 11.39 0 5.78 0 0 Z " fill="#4D7934" transform="translate(155,70)"/>
<path d="M0 0 C3.96 0 7.92 0 12 0 C12 0.99 12 1.98 12 3 C9.36 3 6.72 3 4 3 C4 4.32 4 5.64 4 7 C6.31 7 8.62 7 11 7 C11 7.99 11 8.98 11 10 C8.69 10 6.38 10 4 10 C4 11.32 4 12.64 4 14 C6.64 14 9.28 14 12 14 C12 14.99 12 15.98 12 17 C8.04 17 4.08 17 0 17 C0 11.39 0 5.78 0 0 Z " fill="#4E7934" transform="translate(66,70)"/>
<path d="M0 0 C1.32 0 2.64 0 4 0 C5.00419637 2.4566947 6.00350501 4.91518353 7 7.375 C7.28617188 8.07367188 7.57234375 8.77234375 7.8671875 9.4921875 C10 14.7734375 10 14.7734375 10 17 C8.68 17 7.36 17 6 17 C5.773125 16.360625 5.54625 15.72125 5.3125 15.0625 C4.14749104 12.72806339 4.14749104 12.72806339 1.375 12.25 C0.59125 12.1675 -0.1925 12.085 -1 12 C-1.33 13.65 -1.66 15.3 -2 17 C-3.32 17 -4.64 17 -6 17 C-4.33846988 11.14340094 -2.52958084 5.5409866 0 0 Z M1 7 C1 7.66 1 8.32 1 9 C1.66 9 2.32 9 3 9 C3 8.34 3 7.68 3 7 C2.34 7 1.68 7 1 7 Z " fill="#4E7832" transform="translate(236,70)"/>
<path d="M0 0 C4.29 0 8.58 0 13 0 C12.08160162 4.59199188 11.65998007 5.89491863 8.9375 9.3125 C8.38964844 10.00988281 7.84179688 10.70726563 7.27734375 11.42578125 C6.85582031 11.94527344 6.43429688 12.46476562 6 13 C8.31 13.33 10.62 13.66 13 14 C13 14.99 13 15.98 13 17 C8.71 17 4.42 17 0 17 C0.91839838 12.40800812 1.34001993 11.10508137 4.0625 7.6875 C4.61035156 6.99011719 5.15820312 6.29273437 5.72265625 5.57421875 C6.35494141 4.79498047 6.35494141 4.79498047 7 4 C4.69 3.67 2.38 3.34 0 3 C0 2.01 0 1.02 0 0 Z " fill="#4D7833" transform="translate(100,70)"/>
<path d="M0 0 C3.63 0 7.26 0 11 0 C11 0.99 11 1.98 11 3 C8.36 3 5.72 3 3 3 C3 4.32 3 5.64 3 7 C5.31 7 7.62 7 10 7 C10 7.99 10 8.98 10 10 C7.69 10 5.38 10 3 10 C3 11.32 3 12.64 3 14 C5.64 14 8.28 14 11 14 C11.33 14.99 11.66 15.98 12 17 C8.04 17 4.08 17 0 17 C0 11.39 0 5.78 0 0 Z " fill="#4D7933" transform="translate(216,70)"/>
<path d="M0 0 C2.88575819 0.39803561 3.82189513 0.79009069 5.75 3.0625 C6.1625 3.701875 6.575 4.34125 7 5 C7.5775 4.175 8.155 3.35 8.75 2.5 C9.4925 1.675 10.235 0.85 11 0 C12.32 0 13.64 0 15 0 C14.00790606 2.67102214 13.00824802 4.98746301 11.4375 7.375 C9.68594884 10.57348473 9.35324922 13.39685799 9 17 C7.68 17 6.36 17 5 17 C4.87625 15.205625 4.87625 15.205625 4.75 13.375 C4.24092783 9.08207801 2.52928091 6.50835739 0 3 C0 2.01 0 1.02 0 0 Z " fill="#4E7934" transform="translate(116,70)"/>
<path d="M0 0 C2.95409701 1.37154504 5.44008376 2.98863724 8 5 C7.63680051 7.6331963 7.14494976 8.84431322 5.3125 10.8125 C2.12701849 12.4482878 0.38411544 12.00803439 -3 11 C-4.875 9.625 -4.875 9.625 -6 8 C-6 5 -6 5 -4.6875 3.61328125 C-3.125 2.40885417 -1.5625 1.20442708 0 0 Z " fill="#F2C510" transform="translate(24,43)"/>
<path d="M0 0 C0.99 0 1.98 0 3 0 C3 4.62 3 9.24 3 14 C5.64 14 8.28 14 11 14 C11 14.99 11 15.98 11 17 C7.04 17 3.08 17 -1 17 C-1.02684679 14.35409986 -1.04676357 11.70846904 -1.0625 9.0625 C-1.07087891 8.30775391 -1.07925781 7.55300781 -1.08789062 6.77539062 C-1.09652441 4.85005687 -1.05224333 2.92464419 -1 1 C-0.67 0.67 -0.34 0.34 0 0 Z " fill="#4E7934" transform="translate(201,70)"/>
<path d="M0 0 C4.67692308 1.47692308 4.67692308 1.47692308 6.3125 4.125 C6.539375 4.74375 6.76625 5.3625 7 6 C5.02 7.65 3.04 9.3 1 11 C-3.67692308 9.52307692 -3.67692308 9.52307692 -5.3125 6.875 C-5.539375 6.25625 -5.76625 5.6375 -6 5 C-4.02 3.35 -2.04 1.7 0 0 Z " fill="#F4C610" transform="translate(16,37)"/>
<path d="M0 0 C3.46704871 0.9534384 5.6567524 2.28676594 8 5 C6.9024777 7.99324263 6.32317108 8.84610901 3.375 10.25 C2.59125 10.4975 1.8075 10.745 1 11 C-0.98 9.35 -2.96 7.7 -5 6 C-3.63016497 2.83884224 -3.0109362 2.0072908 0 0 Z " fill="#F4C610" transform="translate(32,37)"/>
<path d="M0 0 C3 0.25 3 0.25 5 2.25 C5.25 5.25 5.25 5.25 5 8.25 C4.34 8.91 3.68 9.57 3 10.25 C-0.625 9.875 -0.625 9.875 -4 9.25 C-4.625 5.875 -4.625 5.875 -5 2.25 C-3 0.25 -3 0.25 0 0 Z M-3 3.25 C-2 7.25 -2 7.25 -2 7.25 Z M0 3.25 C1 5.25 1 5.25 1 5.25 Z M3 4.25 C4 6.25 4 6.25 4 6.25 Z " fill="#4F7731" transform="translate(293,9.75)"/>
<path d="M0 0 C1.98 1.65 3.96 3.3 6 5 C4.125 8.875 4.125 8.875 3 10 C0.6875 10.375 0.6875 10.375 -2 10 C-4.3125 7.5 -4.3125 7.5 -6 5 C-4.02 3.35 -2.04 1.7 0 0 Z " fill="#F9C912" transform="translate(41,44)"/>
<path d="M0 0 C3 1.8125 3 1.8125 6 4 C6 7 6 7 4.8125 8.6875 C2.36434496 10.46030193 0.96093091 10.44413964 -2 10 C-3.8125 8.5 -3.8125 8.5 -5 7 C-3.70700306 4.11562221 -2.34058637 2.12780579 0 0 Z " fill="#F9CA12" transform="translate(8,44)"/>
<path d="M0 0 C1.875 1.5625 1.875 1.5625 3 3 C-1.24242424 7 -1.24242424 7 -4.5625 7 C-7.42914332 5.8239412 -8.97907654 4.32031952 -11 2 C-7.00271488 -0.93918024 -4.77749251 -1.45401946 0 0 Z " fill="#F9CA11" transform="translate(29,33)"/>
<path d="M0 0 C1.98 0.66 3.96 1.32 6 2 C4.60667426 5.36720387 3.0210714 6.9859524 0 9 C-1.32 8.34 -2.64 7.68 -4 7 C-2.79618552 4.50638429 -1.54571278 2.31856917 0 0 Z " fill="#F9CB10" transform="translate(8,33)"/>
<path d="M0 0 C1.6875 2.0625 1.6875 2.0625 3 4 C2.34 5.32 1.68 6.64 1 8 C-1.94956528 6.63055898 -4.52468811 5.12169591 -7 3 C-7 2.34 -7 1.68 -7 1 C-3.375 -1.125 -3.375 -1.125 0 0 Z " fill="#F9CB10" transform="translate(43,34)"/>
<path d="M0 0 C1.4375 2.0625 1.4375 2.0625 2 4 C-0.6875 5.25 -0.6875 5.25 -4 6 C-6.875 4.25 -6.875 4.25 -9 2 C-9 1.34 -9 0.68 -9 0 C-5.81926598 -1.59036701 -3.37573597 -0.78365299 0 0 Z " fill="#F9CA10" transform="translate(37,29)"/>
<path d="M0 0 C-1.03443859 2.82119614 -1.73220706 3.84496198 -4.375 5.375 C-7 6 -7 6 -9.3125 5.125 C-9.869375 4.75375 -10.42625 4.3825 -11 4 C-8.36255031 -1.84006718 -6.04918208 -1.00819701 0 0 Z " fill="#F9CA10" transform="translate(22,29)"/>
<path d="M0 0 C0.99 0.33 1.98 0.66 3 1 C1.63016497 4.16115776 1.0109362 4.9927092 -2 7 C-1.125 1.125 -1.125 1.125 0 0 Z " fill="#F9CA12" transform="translate(3,41)"/>
<path d="M0 0 C0.66 0.33 1.32 0.66 2 1 C2.625 4.0625 2.625 4.0625 3 7 C1.2925002 5.71937515 -0.37373596 4.38232443 -2 3 C-2 2.34 -2 1.68 -2 1 C-1.34 0.67 -0.68 0.34 0 0 Z " fill="#F9CA12" transform="translate(46,41)"/>
</svg>
